<svg width="783" height="146" viewBox="0 0 783 146" fill="none" xmlns="http://www.w3.org/2000/svg">
<rect width="783" height="146" rx="8" fill="#DEE9F5"/>
<path d="M0 36H87C98.0457 36 107 44.9543 107 56V90C107 101.046 98.0457 110 87 110H0V36Z" fill="white"/>
<g clip-path="url(#clip0_951_5918)">
<path d="M79.9972 86.1227C79.8743 75.1726 76.761 64.2654 71.061 54.8355C70.7098 54.2554 70.3441 53.6725 69.8496 53.201C68.1144 51.5522 65.1766 51.7265 63.1137 52.9638C61.0509 54.2011 59.6668 56.2529 58.3793 58.256L58.4028 58.2646C57.3816 59.9591 55.6698 62.688 53.6303 65.8599L46.0811 77.3072C57.7415 86.2228 64.764 71.8579 64.7992 71.7922L64.7816 71.7807L61.0772 71.6922C60.5739 71.7036 60.1584 71.535 60.0414 71.0921C59.9243 70.6463 60.2023 70.1948 60.6558 70.0805L67.2922 67.9888C67.2922 67.9888 69.7647 64.8455 70.5255 64.2511C70.6191 64.174 70.7332 64.1168 70.8591 64.0854C71.3155 63.9711 71.7778 64.2425 71.8949 64.6855C71.9271 64.8112 71.93 64.9398 71.9037 65.0598C71.8861 65.1855 71.7018 66.0714 70.1392 69.6233L71.377 76.3042C71.494 76.75 71.216 77.2015 70.7625 77.3158C70.306 77.4301 69.9725 77.1701 69.7267 76.7157L67.7574 73.4095C66.3617 77.9616 62.8709 80.8534 62.8709 80.8534C67.26 86.6885 64.9162 84.1396 69.5599 89.3975C70.5489 90.5176 71.655 91.5149 72.9688 92.2493C74.2826 92.9837 75.9534 93.2723 77.3169 92.6294C79.5993 91.5549 80.0265 88.5974 79.9972 86.1227Z" fill="#DF1E34"/>
<path d="M48.6209 58.2628C47.3334 56.2596 45.9494 54.2079 43.8865 52.9706C41.8236 51.7333 38.8859 51.5618 37.1507 53.2078C36.6562 53.6793 36.2904 54.2593 35.9393 54.8423C30.2393 64.275 27.123 75.1794 27.0001 86.1324C26.9738 88.607 27.3981 91.5645 29.6804 92.639C31.044 93.2819 32.7148 92.9933 34.0286 92.2589C35.3424 91.5245 36.3694 90.3929 37.3585 89.2728C38.7425 87.7069 40.8405 84.8636 43.2018 81.486C38.1046 77.2911 36.4046 68.6928 36.4046 68.6928C36.2992 68.227 38.6781 68.227 38.6781 68.227C40.9517 68.227 41.057 68.6928 41.057 68.6928C42.7132 72.5705 44.3605 75.5852 46.0782 77.3054C48.6677 73.4849 51.3509 69.3957 53.6274 65.8581L53.6421 65.8524C53.2061 65.1409 54.4028 67.264 48.618 58.2628H48.6209Z" fill="#0D4E88"/>
<path d="M53.6713 65.8808L51.9274 63.3633L44.144 74.7963C44.144 74.7963 45.6363 76.9823 46.0606 77.2909L53.6743 65.8808H53.6713Z" fill="#0E4168"/>
<path d="M43.2018 81.4692C43.2018 81.4692 37.1741 90.5047 34.3943 92.0392C34.3943 92.0392 32.3636 93.448 30.2744 92.8536L40.8785 79.0117C40.8785 79.0117 42.1952 80.7491 43.1989 81.4721L43.2018 81.4692Z" fill="#0E4168"/>
</g>
<defs>
<clipPath id="clip0_951_5918">
<rect width="53" height="41" fill="white" transform="translate(27 52)"/>
</clipPath>
</defs>
</svg>
