<svg width="60" height="46" viewBox="0 0 60 46" fill="none" xmlns="http://www.w3.org/2000/svg">
<g clip-path="url(#clip0_760_5572)">
<path d="M59.9972 38.2841C59.8581 25.9986 56.3335 13.7612 49.8807 3.18132C49.4832 2.5305 49.0691 1.87647 48.5093 1.34747C46.545 -0.5024 43.2192 -0.306832 40.8838 1.08138C38.5485 2.46958 36.9817 4.77151 35.5242 7.01893L35.5507 7.02855C34.3946 8.92972 32.4567 11.9915 30.1479 15.5502L21.6016 28.3935C34.802 38.3963 42.7521 22.2796 42.7919 22.2059L42.772 22.193L38.5783 22.0936C38.0086 22.1065 37.5382 21.9173 37.4057 21.4204C37.2732 20.9202 37.5879 20.4137 38.1013 20.2854L45.6141 17.9386C45.6141 17.9386 48.4132 14.412 49.2745 13.7452C49.3805 13.6586 49.5097 13.5945 49.6521 13.5592C50.1689 13.431 50.6923 13.7355 50.8248 14.2325C50.8612 14.3735 50.8645 14.5178 50.8347 14.6525C50.8148 14.7935 50.6061 15.7874 48.8372 19.7725L50.2385 27.2682C50.371 27.7683 50.0563 28.2749 49.5428 28.4031C49.0261 28.5313 48.6484 28.2396 48.3702 27.7298L46.1408 24.0205C44.5608 29.1277 40.6089 32.3722 40.6089 32.3722C45.5777 38.9188 42.9244 36.0591 48.1814 41.9581C49.301 43.2149 50.5531 44.3338 52.0405 45.1578C53.5278 45.9817 55.4193 46.3055 56.9629 45.5842C59.5467 44.3787 60.0303 41.0605 59.9972 38.2841Z" fill="#DF1E34"/>
<path d="M24.4766 7.02946C23.0191 4.78204 21.4523 2.48011 19.1169 1.09191C16.7816 -0.296302 13.4558 -0.488664 11.4915 1.358C10.9317 1.887 10.5176 2.53782 10.1201 3.19185C3.66727 13.7749 0.139419 26.0091 0.000292912 38.2978C-0.0295199 41.0742 0.450798 44.3924 3.03458 45.5979C4.57822 46.3193 6.46968 45.9954 7.95701 45.1715C9.44434 44.3475 10.607 43.078 11.7267 41.8212C13.2935 40.0643 15.6686 36.8743 18.3418 33.0848C12.5714 28.3784 10.6468 18.7314 10.6468 18.7314C10.5275 18.2089 13.2206 18.2089 13.2206 18.2089C15.7945 18.2089 15.9137 18.7314 15.9137 18.7314C17.7886 23.082 19.6536 26.4644 21.598 28.3944C24.5296 24.1079 27.5672 19.5201 30.1444 15.5511L30.161 15.5447C29.6674 14.7464 31.0222 17.1284 24.4733 7.02946H24.4766Z" fill="#0D4E88"/>
<path d="M30.1938 15.5745L28.2196 12.75L19.4082 25.5773C19.4082 25.5773 21.0976 28.0299 21.5779 28.3762L30.1971 15.5745H30.1938Z" fill="#0E4168"/>
<path d="M18.3418 33.0658C18.3418 33.0658 11.518 43.2032 8.37109 44.9248C8.37109 44.9248 6.07218 46.5054 3.70703 45.8386L15.7117 30.3086C15.7117 30.3086 17.2023 32.2579 18.3385 33.069L18.3418 33.0658Z" fill="#0E4168"/>
</g>
<defs>
<clipPath id="clip0_760_5572">
<rect width="60" height="46" fill="white"/>
</clipPath>
</defs>
</svg>
