<svg width="80" height="35" viewBox="0 0 80 35" fill="none" xmlns="http://www.w3.org/2000/svg">
<g clip-path="url(#clip0_762_5936)">
<path d="M67.72 4.08L56.71 6.08H80C80 5.29 79.25 4.44 77.45 4.45H76.44C76.58 4.74 76.5 5.1 76.23 5.29C75.93 5.51 75.51 5.44 75.29 5.14C75.07 4.84 75.14 4.42 75.44 4.2L76.91 3.23C78.29 2.36 78.15 1.08 76.27 0.97L60.79 0C60.79 0 65.71 1.52 68.29 2.48C69.75 3.03 69.47 3.78 67.72 4.08Z" fill="#007AC2"/>
<path d="M11.6197 9.22953C11.5097 9.05953 11.3797 8.92953 11.2197 8.82953C11.0597 8.72953 10.8997 8.65953 10.7097 8.62953C10.5397 8.59953 10.3697 8.57953 10.2097 8.57953C10.0397 8.57953 9.85969 8.59953 9.67969 8.63953C9.48969 8.67953 9.29969 8.73953 9.11969 8.83953C8.92969 8.92953 8.74969 9.05953 8.58969 9.21953C8.42969 9.37953 8.27969 9.58953 8.15969 9.83953L3.23969 18.7795C3.19969 18.8395 3.17969 18.9195 3.17969 18.9995C3.17969 19.0895 3.20969 19.1995 3.28969 19.2695C3.36969 19.3395 3.46969 19.3595 3.56969 19.3595H4.58969C4.68969 19.3595 4.78969 19.3195 4.87969 19.2695C4.96969 19.2095 5.03969 19.1395 5.07969 19.0395L6.76969 15.5695H10.8597L11.2597 18.9895C11.2797 19.0795 11.3097 19.1595 11.3497 19.2195C11.4197 19.3195 11.5297 19.3495 11.6297 19.3495H12.6397C12.7597 19.3495 12.8797 19.3195 12.9597 19.2295C13.0497 19.1395 13.0797 19.0195 13.0797 18.8995V18.8295L11.8197 9.86953C11.7997 9.61953 11.7297 9.40953 11.6197 9.22953ZM7.47969 14.1195L9.60969 10.2795C9.68969 10.1295 9.88969 10.0995 10.0197 10.1095C10.2797 10.1195 10.3097 10.2795 10.3097 10.2795L10.7597 14.1195H7.47969ZM21.0597 11.3095C20.7897 11.0295 20.4497 10.8195 20.0497 10.6595C19.6497 10.4995 19.1797 10.4195 18.6397 10.4195C17.4197 10.4195 16.3997 10.7595 15.6197 11.4395C14.8397 12.1195 14.3197 13.0995 14.0597 14.3695L13.8397 15.4495C13.7697 15.7995 13.7397 16.1295 13.7397 16.4395C13.7397 16.9795 13.8397 17.4495 14.0397 17.8395C14.2397 18.2195 14.4997 18.5295 14.8297 18.7795C15.1497 19.0195 15.5197 19.1895 15.9397 19.2995C16.3397 19.3995 16.7597 19.4595 17.1797 19.4595H17.1897C17.7597 19.4595 18.2697 19.4395 18.7197 19.3895C19.1597 19.3395 19.6397 19.2795 20.1397 19.1895C20.2997 19.1695 20.4197 19.1295 20.5197 19.0295C20.5997 18.9495 20.6397 18.8395 20.6697 18.6995L20.7697 18.1695V18.1595V18.0795C20.7797 17.9895 20.7297 17.8895 20.6497 17.8395C20.5697 17.7795 20.4897 17.7695 20.3997 17.7695H20.2997C19.8897 17.8195 19.4397 17.8695 18.9197 17.9195C18.3997 17.9595 17.8997 17.9895 17.4097 17.9895C16.7797 17.9895 16.3097 17.8595 15.9697 17.6295C15.6497 17.3995 15.4797 17.0495 15.4797 16.4895C15.4797 16.3495 15.4897 16.2095 15.4997 16.0595C15.5197 15.9195 15.5497 15.7595 15.5997 15.5895L15.6197 15.5095H21.0997C21.2497 15.5095 21.3897 15.4695 21.4797 15.3595C21.5497 15.2695 21.5897 15.1695 21.6197 15.0495L21.7497 14.3995C21.8197 14.0595 21.8497 13.7395 21.8497 13.4395C21.8497 13.0195 21.7897 12.6295 21.6597 12.2595C21.5397 11.9095 21.3297 11.5795 21.0597 11.3095ZM19.9897 14.1895H15.8797C15.9597 13.8795 16.0597 13.5995 16.1897 13.3495C16.3397 13.0695 16.5197 12.8195 16.7397 12.5995C16.9497 12.3895 17.1997 12.2195 17.4797 12.1095C17.7597 11.9895 18.0697 11.9395 18.4197 11.9395C19.5797 11.9595 20.0497 12.3995 20.0697 13.4295C20.0797 13.6395 20.0497 13.8995 19.9897 14.1895ZM27.7397 11.5395L27.8597 10.8895V10.8795V10.7995C27.8697 10.6995 27.8197 10.5795 27.7197 10.5095C27.6297 10.4395 27.5197 10.4295 27.3997 10.4295H27.3697C26.9697 10.4295 26.5597 10.4795 26.1497 10.5695C25.8197 10.6495 25.4697 10.7995 25.1197 11.0195V10.9395C25.1197 10.8295 25.0897 10.7195 25.0097 10.6395C24.9297 10.5595 24.8197 10.5295 24.7097 10.5295H23.9197C23.7997 10.5295 23.6697 10.5795 23.5797 10.6595C23.4897 10.7395 23.4197 10.8395 23.3897 10.9495L21.8997 18.8695V18.9495C21.8997 19.0595 21.9297 19.1695 22.0097 19.2495C22.0897 19.3295 22.1997 19.3595 22.2997 19.3595H23.1197C23.2497 19.3595 23.3697 19.3095 23.4697 19.2295C23.5697 19.1495 23.6397 19.0495 23.6797 18.9295L24.8897 12.4995C25.2697 12.2895 25.6197 12.1395 25.9297 12.0495C26.2597 11.9595 26.6697 11.9195 27.1297 11.9195H27.1797C27.4497 11.9395 27.6997 11.7895 27.7397 11.5395ZM34.4997 11.2895C34.2197 11.0195 33.8797 10.7995 33.4797 10.6495C33.0697 10.4995 32.6097 10.4195 32.0797 10.4195C29.5397 10.4095 27.9597 11.7495 27.4997 14.3195L27.2897 15.4995C27.2597 15.6495 27.2497 15.7895 27.2297 15.9295C27.2097 16.0795 27.1997 16.2195 27.1997 16.3795C27.1997 16.8295 27.2697 17.2395 27.4097 17.6195C27.5497 17.9995 27.7597 18.3195 28.0297 18.5995C28.2997 18.8795 28.6397 19.0895 29.0497 19.2395C29.4497 19.3895 29.9197 19.4595 30.4297 19.4595C31.0997 19.4595 31.6997 19.3695 32.2297 19.1895C32.7497 19.0095 33.2097 18.7495 33.5897 18.4095C33.9697 18.0695 34.2797 17.6595 34.5097 17.1795C34.7397 16.6995 34.9197 16.1595 35.0297 15.5595L35.2497 14.3795C35.2697 14.2295 35.2897 14.0795 35.3097 13.9395C35.3297 13.7895 35.3297 13.6395 35.3297 13.4895C35.3297 13.0495 35.2597 12.6395 35.1297 12.2695C34.9897 11.8895 34.7797 11.5595 34.4997 11.2895ZM33.5297 13.8795C33.5197 14.0195 33.4997 14.1695 33.4697 14.3295L33.2497 15.5095C33.1797 15.8795 33.0697 16.2095 32.9197 16.5095C32.7597 16.8095 32.5797 17.0695 32.3597 17.2795C32.1397 17.4895 31.8897 17.6595 31.5997 17.7795C31.3197 17.8995 30.9997 17.9595 30.6497 17.9595C30.0197 17.9595 29.5897 17.8195 29.3497 17.5895C29.1097 17.3495 28.9697 16.9795 28.9697 16.4495C28.9697 16.1895 28.9997 15.8995 29.0697 15.5595L29.2897 14.3795C29.4297 13.6095 29.7297 13.0095 30.1697 12.5695C30.6097 12.1395 31.1697 11.9195 31.8697 11.9195C32.4997 11.9195 32.9297 12.0595 33.1697 12.3095C33.4197 12.5595 33.5497 12.9395 33.5497 13.4695C33.5397 13.5995 33.5397 13.7395 33.5297 13.8795ZM39.3297 8.23953C39.3297 8.13953 39.2997 8.02953 39.2297 7.95953C39.1497 7.87953 39.0497 7.85953 38.9497 7.85953H38.0797C37.8197 7.83953 37.5897 8.02953 37.5597 8.27953L35.5597 18.8795V18.9595C35.5597 19.0695 35.5797 19.1695 35.6597 19.2495C35.7297 19.3295 35.8397 19.3595 35.9397 19.3595H36.8197C36.9497 19.3595 37.0697 19.3095 37.1597 19.2295C37.2497 19.1495 37.3097 19.0495 37.3397 18.9395L39.3497 8.31953V8.23953H39.3297ZM41.8197 10.5295H41.0197C40.8997 10.5295 40.7697 10.5795 40.6697 10.6595C40.5697 10.7395 40.4997 10.8395 40.4697 10.9595L38.9797 18.8795V18.9595C38.9797 19.0695 39.0097 19.1795 39.0997 19.2595C39.1797 19.3395 39.2897 19.3595 39.3997 19.3595H40.2097C40.3397 19.3595 40.4597 19.3095 40.5597 19.2295C40.6597 19.1495 40.7297 19.0495 40.7597 18.9295L42.2497 11.0095V10.9295C42.2497 10.8195 42.2197 10.7095 42.1297 10.6295C42.0397 10.5595 41.9297 10.5295 41.8197 10.5295ZM40.8697 9.70953H41.7697C41.8797 9.70953 41.9797 9.68953 42.0697 9.62953C42.1297 9.58953 42.1997 9.51953 42.2897 9.43953L43.9697 8.02953C44.0397 7.95953 44.0997 7.88953 44.1097 7.76953C44.1097 7.56953 43.8997 7.51953 43.7897 7.51953H42.6897C42.5697 7.51953 42.4597 7.53953 42.3697 7.59953C42.3097 7.63953 42.2397 7.70953 42.1497 7.78953L40.7297 9.16953C40.6497 9.24953 40.5897 9.32953 40.5797 9.44953C40.5797 9.62953 40.7597 9.70953 40.8697 9.70953ZM50.0197 11.1695C49.7997 10.9295 49.5197 10.7495 49.1897 10.6195C48.8497 10.4895 48.4497 10.4295 47.9897 10.4295C47.4097 10.4295 46.8997 10.4995 46.4697 10.6595C46.1397 10.7695 45.8197 10.9095 45.4997 11.0595V11.0295V11.0195V10.9495C45.4997 10.8495 45.4697 10.7595 45.4097 10.6895C45.3297 10.5895 45.2097 10.5495 45.0997 10.5495H44.2797C44.1597 10.5495 44.0297 10.5995 43.9397 10.6795C43.8497 10.7595 43.7797 10.8595 43.7497 10.9695L42.2597 18.8895V18.9695C42.2597 19.0595 42.2897 19.1595 42.3497 19.2295C42.4197 19.3295 42.5397 19.3695 42.6597 19.3695H43.4897C43.6197 19.3695 43.7397 19.3195 43.8397 19.2395C43.9397 19.1595 44.0097 19.0595 44.0397 18.9395L45.2597 12.4695C45.7497 12.2495 46.1697 12.1095 46.4897 12.0395C46.8397 11.9695 47.1597 11.9295 47.4797 11.9295C48.0797 11.9295 48.4497 12.0395 48.6097 12.1995C48.7897 12.3695 48.8797 12.6095 48.8797 12.9595C48.8797 13.0795 48.8697 13.2095 48.8497 13.3495C48.8297 13.4995 48.8097 13.6395 48.7897 13.7795L47.9197 18.8695V18.9395C47.9197 19.0495 47.9497 19.1695 48.0297 19.2395C48.1097 19.3195 48.2297 19.3395 48.3397 19.3395H49.1397C49.2597 19.3395 49.3897 19.2895 49.4897 19.2095C49.5897 19.1295 49.6597 19.0295 49.6897 18.9095L50.5597 13.8195C50.6197 13.5195 50.6497 13.2295 50.6497 12.9495C50.6497 12.5995 50.5997 12.2795 50.4997 11.9695C50.3897 11.6795 50.2297 11.4095 50.0197 11.1695ZM58.4697 11.3095C58.1997 11.0295 57.8597 10.8195 57.4697 10.6595C57.0697 10.4995 56.5997 10.4295 56.0597 10.4295C54.8397 10.4295 53.8297 10.7695 53.0397 11.4495C52.2597 12.1295 51.7397 13.1095 51.4797 14.3795L51.2597 15.4595C51.1897 15.8095 51.1597 16.1395 51.1597 16.4495C51.1597 16.9895 51.2597 17.4695 51.4597 17.8495C51.6597 18.2295 51.9197 18.5395 52.2497 18.7895C52.5697 19.0295 52.9397 19.1995 53.3597 19.3095C53.7697 19.4195 54.1897 19.4695 54.6097 19.4695C55.1797 19.4695 55.6897 19.4495 56.1397 19.3995C56.5797 19.3495 57.0597 19.2895 57.5597 19.1995C57.7197 19.1795 57.8397 19.1395 57.9397 19.0395C58.0197 18.9595 58.0597 18.8495 58.0897 18.7195L58.1897 18.1895V18.1795V18.0995C58.1897 18.0195 58.1497 17.9095 58.0697 17.8595C57.9897 17.7995 57.9097 17.7895 57.8197 17.7895H57.7197C57.3097 17.8395 56.8597 17.8895 56.3397 17.9395C55.8197 17.9795 55.3197 18.0095 54.8297 18.0095C54.1997 18.0095 53.7297 17.8795 53.3897 17.6495C53.0697 17.4195 52.8997 17.0695 52.8997 16.5095C52.8997 16.3695 52.9097 16.2295 52.9197 16.0795C52.9397 15.9295 52.9697 15.7795 53.0197 15.6095L53.0397 15.5295H58.5197C58.6697 15.5295 58.8097 15.4895 58.8997 15.3795C58.9697 15.2895 59.0097 15.1895 59.0397 15.0695L59.1697 14.4195C59.2397 14.0795 59.2697 13.7595 59.2697 13.4595C59.2697 13.0395 59.2097 12.6495 59.0797 12.2795C58.9397 11.9095 58.7397 11.5795 58.4697 11.3095ZM57.3997 14.1895H53.2897C53.3697 13.8795 53.4697 13.5995 53.5997 13.3495C53.7497 13.0695 53.9297 12.8195 54.1497 12.5995C54.3697 12.3895 54.6097 12.2195 54.8897 12.0995C55.1697 11.9895 55.4797 11.9295 55.8297 11.9295C56.9897 11.9495 57.4597 12.3895 57.4797 13.4195C57.4897 13.6395 57.4597 13.8995 57.3997 14.1895ZM67.8597 11.1695C67.8497 10.9395 67.6497 10.8195 67.4297 10.7895C67.0097 10.6795 66.5297 10.5995 66.0197 10.5295C65.4997 10.4595 64.9897 10.4295 64.4797 10.4295C63.9697 10.4295 63.4697 10.4895 62.9897 10.6095C62.5097 10.7295 62.0597 10.9395 61.6597 11.2195C61.2597 11.5095 60.9097 11.8795 60.6197 12.3495C60.3297 12.8195 60.1197 13.3995 59.9797 14.0795L59.6797 15.6095C59.6097 15.9395 59.5797 16.2595 59.5797 16.5695C59.5797 17.0595 59.6497 17.4895 59.7997 17.8595C59.9397 18.2195 60.1397 18.5295 60.3997 18.7695C60.6497 19.0095 60.9497 19.1795 61.2797 19.2995C61.6097 19.4095 61.9597 19.4695 62.3297 19.4695H62.3397C62.6197 19.4695 62.8797 19.4495 63.1197 19.4095C63.3497 19.3695 63.5797 19.3195 63.7897 19.2295C63.9997 19.1495 64.2197 19.0495 64.4297 18.9295C64.5497 18.8595 64.6797 18.7895 64.8197 18.6995L64.7997 18.8295V18.8395V18.9495C64.7997 19.0495 64.8197 19.1395 64.8797 19.2195C64.9597 19.3295 65.0897 19.3495 65.2097 19.3495H65.8797C65.9997 19.3495 66.1297 19.2995 66.2197 19.2195C66.3097 19.1395 66.3797 19.0395 66.4097 18.9295L67.8497 11.3195C67.8497 11.2795 67.8597 11.2295 67.8597 11.1695ZM64.9397 17.1695C64.4997 17.4395 64.0997 17.6395 63.7497 17.7895C63.3897 17.9395 63.0297 18.0095 62.6497 18.0095C62.2797 18.0095 61.9797 17.8995 61.7197 17.6895C61.4897 17.4995 61.3497 17.1295 61.3497 16.5595C61.3497 16.4495 61.3497 16.3395 61.3697 16.2195C61.3797 16.0995 61.3997 15.9895 61.4197 15.8795L61.7197 14.2795C61.8697 13.4795 62.1697 12.8795 62.5897 12.4795C63.0097 12.0895 63.6297 11.8795 64.4697 11.8795C64.8197 11.8795 65.1197 11.8995 65.3597 11.9295C65.5497 11.9495 65.7297 11.9795 65.9097 12.0095L64.9397 17.1695ZM74.5897 10.6295C74.4097 10.5995 74.2397 10.5695 74.0897 10.5495C73.9297 10.5195 73.7497 10.4995 73.5697 10.4895C73.3797 10.4695 73.1697 10.4595 72.9497 10.4495C72.7197 10.4395 72.4397 10.4395 72.1197 10.4395C71.6997 10.4395 71.2697 10.4795 70.8497 10.5495C70.4197 10.6195 70.0297 10.7595 69.6897 10.9595C69.3497 11.1595 69.0697 11.4195 68.8497 11.7395C68.6297 12.0795 68.5197 12.4895 68.5197 12.9795C68.5197 13.7395 69.0397 14.4095 69.9797 14.9795L71.4997 15.8895C71.8897 16.1095 72.1397 16.3095 72.2397 16.4395C72.3497 16.5895 72.3997 16.7195 72.3997 16.8595C72.3997 17.0895 72.3497 17.2595 72.2597 17.3995C72.1697 17.5495 72.0497 17.6595 71.8997 17.7495C71.7397 17.8395 71.5597 17.9095 71.3397 17.9495C71.1197 17.9895 70.8997 18.0195 70.6597 18.0195C70.5197 18.0195 70.3397 18.0195 70.1297 17.9995C69.9097 17.9895 69.6797 17.9795 69.4497 17.9595C69.2097 17.9495 68.9797 17.9295 68.7397 17.8995C68.5097 17.8795 68.2897 17.8595 68.0897 17.8395H67.9697C67.7497 17.8295 67.5397 17.9695 67.4997 18.1895L67.3997 18.7395V18.7495V18.8095C67.3997 18.9195 67.4497 19.0495 67.5497 19.1195C67.6197 19.1695 67.6997 19.1995 67.7897 19.2295C67.9897 19.2695 68.2097 19.3095 68.4397 19.3395C68.6697 19.3695 68.9097 19.3995 69.1497 19.4095C69.3797 19.4295 69.6097 19.4395 69.8397 19.4495C70.0697 19.4595 70.2697 19.4595 70.4497 19.4595H70.4597C70.9197 19.4595 71.3697 19.4195 71.8097 19.3295C72.2597 19.2395 72.6597 19.0895 73.0097 18.8795C73.3597 18.6695 73.6497 18.3795 73.8597 18.0295C74.0797 17.6695 74.1797 17.2295 74.1797 16.7095C74.1797 16.3395 74.0697 15.9795 73.8497 15.6595C73.6197 15.3295 73.2197 14.9995 72.6397 14.6395L71.1297 13.7295C70.8397 13.5595 70.6297 13.3995 70.4797 13.2595C70.3497 13.1295 70.2897 12.9995 70.2897 12.8395C70.2897 12.6395 70.3397 12.4895 70.4197 12.3895C70.5197 12.2695 70.6397 12.1795 70.7897 12.0995C70.9497 12.0195 71.1197 11.9695 71.3197 11.9395C71.5197 11.9095 71.7097 11.8995 71.8897 11.8995C72.3497 11.8995 72.8097 11.9095 73.2397 11.9395C73.6797 11.9595 74.0397 11.9895 74.3297 12.0195H74.3997C74.6397 12.0395 74.8497 11.8695 74.8897 11.6295L74.9697 11.1195V11.1095V11.0295C74.9797 10.8195 74.7997 10.6495 74.5897 10.6295Z" fill="#007AC2"/>
<path d="M23.47 22.5397C23.09 22.4597 22.63 22.3797 22.1 22.2997C21.56 22.2197 21.04 22.1797 20.54 22.1797C19.91 22.1797 19.34 22.2497 18.85 22.3797C18.35 22.5197 17.91 22.7397 17.53 23.0497C17.15 23.3597 16.84 23.7497 16.59 24.2397C16.34 24.7297 16.15 25.3197 16.01 26.0297L15.79 27.1597C15.72 27.5397 15.69 27.8897 15.69 28.2097C15.69 28.7097 15.77 29.1397 15.93 29.4997C16.09 29.8597 16.31 30.1597 16.6 30.3897C16.88 30.6197 17.22 30.7897 17.61 30.8997C18 31.0097 18.42 31.0697 18.88 31.0697C19.01 31.0697 19.15 31.0597 19.33 31.0397C19.5 31.0297 19.68 31.0097 19.87 30.9897C20.05 30.9697 20.23 30.9497 20.39 30.9197C20.5 30.8997 20.6 30.8897 20.69 30.8697L20.68 30.9397C20.61 31.2897 20.53 31.5797 20.43 31.8097C20.33 32.0397 20.2 32.2197 20.03 32.3597C19.86 32.4897 19.65 32.5897 19.4 32.6497C19.15 32.7097 18.84 32.7397 18.47 32.7397C18.25 32.7397 18.01 32.7297 17.75 32.7197C17.49 32.6997 17.23 32.6897 16.96 32.6697C16.7 32.6497 16.46 32.6397 16.24 32.6197C16.02 32.5997 15.84 32.5797 15.69 32.5597H15.66H15.63C15.53 32.5597 15.44 32.5797 15.36 32.6297C15.28 32.6797 15.23 32.7597 15.2 32.8597L15.11 33.3097V33.3197V33.3297C15.09 33.3597 15.09 33.3797 15.09 33.4097C15.09 33.5797 15.23 33.6797 15.43 33.7297C15.66 33.7897 16.02 33.8597 16.53 33.9197C17.04 33.9797 17.61 34.0097 18.24 34.0097C18.84 34.0097 19.37 33.9597 19.83 33.8697C20.28 33.7797 20.68 33.6097 21 33.3697C21.33 33.1297 21.6 32.7997 21.81 32.3997C22.02 31.9897 22.18 31.4897 22.29 30.8797L23.79 22.9797V22.9697C23.79 22.9597 23.79 22.9497 23.79 22.9497C23.8 22.9197 23.81 22.8897 23.8 22.8697C23.84 22.6897 23.68 22.5797 23.47 22.5397ZM20.95 29.6097C20.83 29.6397 20.7 29.6597 20.55 29.6797C20.38 29.6997 20.21 29.7197 20.03 29.7397C19.86 29.7497 19.69 29.7597 19.53 29.7697C19.37 29.7797 19.23 29.7797 19.11 29.7797C18.48 29.7797 18.03 29.6697 17.74 29.4597C17.46 29.2497 17.31 28.8697 17.31 28.2997C17.31 28.1497 17.32 27.9797 17.33 27.7897C17.35 27.6097 17.38 27.4197 17.42 27.2097L17.64 26.0797C17.82 25.1797 18.12 24.5297 18.54 24.1197C18.96 23.7097 19.55 23.4997 20.32 23.4997C20.67 23.4997 21.01 23.5197 21.33 23.5497C21.62 23.5797 21.86 23.6197 22.07 23.6497L20.95 29.6097ZM49.28 20.5997V20.5297C49.28 20.3297 49.14 20.1997 48.94 20.1997H48.09C47.98 20.1997 47.88 20.2397 47.79 20.3097C47.7 20.3797 47.64 20.4697 47.61 20.5697L47.52 21.2397V21.3097C47.52 21.5097 47.66 21.6397 47.87 21.6397H48.72C48.83 21.6397 48.93 21.5997 49.02 21.5297C49.11 21.4597 49.17 21.3697 49.2 21.2697M15.85 23.5297C16.1 23.5397 16.29 23.4197 16.33 23.1997L16.45 22.5497V22.5397V22.4697C16.45 22.2797 16.28 22.1797 16.07 22.1797H16.04C15.64 22.1797 15.24 22.2297 14.83 22.3197C14.46 22.4097 14.08 22.5897 13.67 22.8597L13.7 22.6897V22.6197C13.7 22.4197 13.57 22.2997 13.37 22.2997H12.58C12.47 22.2997 12.37 22.3397 12.29 22.4097C12.21 22.4797 12.15 22.5597 12.12 22.6597L10.63 30.5697V30.6397C10.63 30.8297 10.76 30.9597 10.96 30.9597H11.78C11.89 30.9597 11.99 30.9197 12.07 30.8497C12.16 30.7797 12.22 30.6897 12.25 30.5897L13.46 24.1297C13.85 23.9097 14.22 23.7497 14.56 23.6597C14.9 23.5697 15.31 23.5197 15.79 23.5197H15.85V23.5297ZM43.97 23.5897H45.71C45.82 23.5897 45.92 23.5497 46 23.4797C46.08 23.4097 46.14 23.3197 46.16 23.2197L46.26 22.6897V22.6197C46.26 22.4197 46.12 22.2997 45.92 22.2997H44.21L44.44 20.9997V20.9497C44.44 20.7797 44.33 20.6497 44.16 20.6497H44.11L43.21 20.7697C42.98 20.7997 42.81 20.9297 42.78 21.1397L42.58 22.2897L41.47 22.3197C41.37 22.3197 41.27 22.3497 41.19 22.4097C41.11 22.4697 41.05 22.5597 41.03 22.6497L40.95 23.0697V23.0797V23.1297C40.94 23.3097 41.09 23.4297 41.28 23.4397L42.34 23.5697L41.33 28.8897C41.31 29.0097 41.29 29.1197 41.28 29.2097C41.27 29.2997 41.26 29.3997 41.26 29.5097C41.26 30.0597 41.46 30.4797 41.87 30.7097C42.26 30.9397 42.75 31.0497 43.33 31.0497C43.49 31.0497 43.66 31.0397 43.85 31.0197C44.04 31.0097 44.22 30.9897 44.39 30.9697C44.52 30.9497 44.62 30.9197 44.68 30.8597C44.74 30.8097 44.78 30.7397 44.8 30.6497L44.9 30.0897V30.0797V30.0097C44.9 29.9197 44.87 29.8297 44.78 29.7997C44.73 29.7797 44.66 29.7697 44.59 29.7697H43.57C43.31 29.7697 43.12 29.7397 43.02 29.6997C42.94 29.6697 42.88 29.5697 42.88 29.3597C42.88 29.2497 42.9 29.1097 42.93 28.9197L43.97 23.5897ZM65.84 22.8497C65.84 22.6797 65.68 22.5797 65.48 22.5397C65.06 22.4397 64.59 22.3497 64.07 22.2797C63.56 22.2097 63.05 22.1797 62.54 22.1797C62.03 22.1797 61.54 22.2397 61.07 22.3597C60.59 22.4797 60.16 22.6797 59.76 22.9597C59.37 23.2397 59.03 23.6097 58.75 24.0697C58.47 24.5297 58.26 25.0997 58.12 25.7697L57.82 27.2997C57.75 27.6197 57.72 27.9397 57.72 28.2397C57.72 28.7197 57.79 29.1397 57.93 29.4997C58.07 29.8597 58.27 30.1497 58.51 30.3797C58.75 30.6097 59.04 30.7797 59.37 30.8897C59.7 30.9997 60.04 31.0597 60.41 31.0597C60.69 31.0597 60.95 31.0397 61.18 30.9997C61.41 30.9697 61.63 30.9097 61.84 30.8297C62.05 30.7497 62.26 30.6597 62.47 30.5397C62.64 30.4497 62.81 30.3397 63 30.2197L62.95 30.5197V30.5597V30.6197C62.95 30.6997 62.97 30.7797 63.01 30.8397C63.07 30.9197 63.16 30.9397 63.28 30.9397H63.95C64.06 30.9397 64.16 30.8997 64.24 30.8297C64.32 30.7597 64.38 30.6697 64.4 30.5797L65.84 22.9697C65.83 22.9497 65.84 22.8997 65.84 22.8497ZM63.07 28.8997C62.62 29.1797 62.21 29.3897 61.84 29.5397C61.47 29.6897 61.09 29.7697 60.72 29.7697C60.34 29.7697 60.01 29.6597 59.74 29.4297C59.48 29.2197 59.34 28.8197 59.34 28.2397C59.34 28.1297 59.35 28.0097 59.35 27.8897C59.36 27.7697 59.38 27.6497 59.4 27.5397L59.7 25.9497C59.85 25.1397 60.15 24.5197 60.6 24.1097C61.04 23.6997 61.68 23.4897 62.53 23.4897C62.89 23.4897 63.19 23.5097 63.43 23.5397C63.65 23.5697 63.86 23.5997 64.06 23.6297L63.07 28.8997ZM72.95 22.7097C72.96 22.5397 72.82 22.4097 72.64 22.3897C72.46 22.3597 72.29 22.3297 72.14 22.3097C71.98 22.2797 71.81 22.2597 71.62 22.2497C71.44 22.2297 71.23 22.2197 71 22.2097C70.77 22.1997 70.49 22.1897 70.17 22.1897C69.76 22.1897 69.34 22.2297 68.91 22.2997C68.48 22.3697 68.11 22.5097 67.78 22.6997C67.45 22.8897 67.18 23.1497 66.97 23.4597C66.76 23.7797 66.65 24.1797 66.65 24.6497C66.65 25.3697 67.14 26.0197 68.07 26.5897L69.59 27.5097C69.98 27.7297 70.24 27.9297 70.36 28.0797C70.48 28.2397 70.54 28.3897 70.54 28.5497C70.54 28.7897 70.49 28.9797 70.39 29.1397C70.29 29.2997 70.16 29.4197 70 29.5097C69.84 29.6097 69.64 29.6797 69.42 29.7197C69.2 29.7697 68.96 29.7897 68.72 29.7897C68.58 29.7897 68.4 29.7897 68.18 29.7697C67.96 29.7597 67.73 29.7497 67.5 29.7297C67.26 29.7197 67.02 29.6997 66.79 29.6697C66.55 29.6497 66.34 29.6297 66.14 29.6097H66.03C65.83 29.5997 65.67 29.7197 65.64 29.8997L65.54 30.4397V30.4497V30.4997C65.54 30.5997 65.58 30.6897 65.66 30.7397C65.72 30.7797 65.8 30.8097 65.88 30.8297C66.08 30.8697 66.29 30.9097 66.51 30.9397C66.74 30.9697 66.97 30.9997 67.21 31.0097C67.44 31.0197 67.67 31.0397 67.89 31.0497C68.12 31.0597 68.32 31.0597 68.5 31.0597C68.96 31.0597 69.41 31.0197 69.85 30.9297C70.29 30.8397 70.68 30.6897 71.02 30.4897C71.36 30.2797 71.64 30.0097 71.84 29.6697C72.05 29.3197 72.15 28.8997 72.15 28.3897C72.15 28.0397 72.04 27.6997 71.83 27.3897C71.62 27.0697 71.22 26.7397 70.64 26.3897L69.13 25.4797C68.84 25.3097 68.62 25.1397 68.47 24.9897C68.32 24.8397 68.26 24.6897 68.26 24.5197C68.26 24.2997 68.31 24.1397 68.41 24.0197C68.51 23.8897 68.65 23.7897 68.81 23.7097C68.98 23.6297 69.16 23.5697 69.36 23.5497C69.56 23.5197 69.76 23.5097 69.94 23.5097C70.4 23.5097 70.86 23.5197 71.3 23.5497C71.74 23.5797 72.1 23.6097 72.39 23.6397H72.45C72.66 23.6497 72.83 23.5197 72.86 23.3097L72.94 22.7997L72.87 22.7897H72.95V22.7097ZM56.68 22.8997C56.47 22.6697 56.2 22.4997 55.87 22.3697C55.54 22.2397 55.15 22.1797 54.7 22.1797C54.13 22.1797 53.63 22.2497 53.21 22.3997C52.84 22.5297 52.47 22.6797 52.11 22.8597L52.14 22.6897V22.6197C52.14 22.5397 52.12 22.4697 52.06 22.3997C52 22.3197 51.91 22.2897 51.81 22.2897H50.99C50.88 22.2897 50.78 22.3297 50.7 22.3997C50.62 22.4697 50.56 22.5597 50.53 22.6597L49.04 30.5697V30.6397C49.04 30.7197 49.07 30.7897 49.12 30.8597C49.17 30.9397 49.27 30.9697 49.37 30.9697H50.2C50.31 30.9697 50.41 30.9297 50.5 30.8597C50.59 30.7897 50.65 30.6997 50.68 30.5997L51.91 24.0997C52.42 23.8697 52.85 23.7197 53.19 23.6497C53.54 23.5697 53.88 23.5397 54.19 23.5397C54.79 23.5397 55.19 23.6497 55.37 23.8297C55.57 24.0197 55.66 24.2797 55.66 24.6397C55.66 24.7597 55.65 24.8897 55.64 25.0397C55.62 25.1897 55.6 25.3297 55.58 25.4797L54.61 30.5797V30.6497C54.61 30.8497 54.75 30.9697 54.95 30.9697H55.75C55.86 30.9697 55.96 30.9297 56.05 30.8597C56.14 30.7897 56.2 30.6997 56.23 30.5997L57.2 25.4997C57.26 25.2097 57.28 24.9197 57.28 24.6497C57.28 24.3097 57.23 23.9997 57.13 23.6997C57.04 23.3897 56.89 23.1197 56.68 22.8997ZM39.66 22.8997C39.45 22.6697 39.18 22.4997 38.85 22.3697C38.52 22.2397 38.13 22.1797 37.68 22.1797C37.1 22.1797 36.61 22.2497 36.18 22.3997C35.81 22.5297 35.45 22.6797 35.09 22.8597L35.12 22.6897V22.6097C35.12 22.5297 35.09 22.4597 35.05 22.3897C34.99 22.3097 34.9 22.2797 34.8 22.2797H33.98C33.87 22.2797 33.77 22.3197 33.69 22.3897C33.61 22.4597 33.55 22.5497 33.52 22.6497L32.03 30.5597V30.6297C32.03 30.7097 32.06 30.7797 32.1 30.8497C32.16 30.9297 32.25 30.9597 32.35 30.9597H33.17C33.28 30.9597 33.38 30.9197 33.47 30.8497C33.56 30.7797 33.62 30.6897 33.65 30.5897L34.88 24.0897C35.39 23.8597 35.82 23.7097 36.16 23.6397C36.51 23.5597 36.84 23.5297 37.16 23.5297C37.76 23.5297 38.16 23.6397 38.34 23.8197C38.53 24.0097 38.63 24.2697 38.63 24.6297C38.63 24.7497 38.62 24.8797 38.61 25.0297C38.59 25.1797 38.57 25.3197 38.55 25.4697L37.58 30.5697V30.6397C37.58 30.8397 37.72 30.9597 37.92 30.9597H38.72C38.83 30.9597 38.93 30.9197 39.02 30.8497C39.11 30.7797 39.17 30.6897 39.2 30.5897L40.17 25.4897C40.23 25.1997 40.26 24.9097 40.25 24.6397C40.25 24.2997 40.2 23.9797 40.1 23.6897C40.02 23.3897 39.87 23.1197 39.66 22.8997ZM31.05 23.0397C30.79 22.7697 30.46 22.5597 30.07 22.4097C29.68 22.2497 29.22 22.1797 28.69 22.1797C27.48 22.1797 26.49 22.5097 25.72 23.1797C24.95 23.8497 24.44 24.8097 24.18 26.0597L23.96 27.1497C23.89 27.4897 23.86 27.8197 23.86 28.1297C23.86 28.6597 23.96 29.1197 24.15 29.4997C24.34 29.8697 24.6 30.1697 24.91 30.4097C25.22 30.6497 25.58 30.8097 25.99 30.9197C26.39 31.0197 26.8 31.0797 27.21 31.0797H27.22C27.79 31.0797 28.3 31.0597 28.74 31.0097C29.18 30.9597 29.65 30.8997 30.16 30.8097C30.31 30.7897 30.42 30.7497 30.5 30.6797C30.57 30.6097 30.61 30.5197 30.63 30.3997L30.73 29.8697V29.8597V29.7897C30.73 29.6397 30.59 29.5597 30.44 29.5597H30.34C29.94 29.6097 29.48 29.6597 28.96 29.7097C28.44 29.7597 27.93 29.7797 27.45 29.7797C26.81 29.7797 26.32 29.6497 25.96 29.4097C25.61 29.1697 25.44 28.7797 25.43 28.2097C25.43 28.0697 25.44 27.9197 25.46 27.7697C25.48 27.6197 25.51 27.4597 25.56 27.2897L25.59 27.1597H31.13C31.26 27.1597 31.38 27.1197 31.45 27.0397C31.51 26.9597 31.55 26.8697 31.57 26.7597L31.7 26.1097C31.77 25.7797 31.8 25.4597 31.8 25.1697C31.8 24.7597 31.74 24.3797 31.61 24.0097C31.52 23.6197 31.32 23.2997 31.05 23.0397ZM30.1 25.9197V25.9397H25.83C25.91 25.5897 26.02 25.2697 26.17 24.9797C26.32 24.6897 26.51 24.4297 26.73 24.2097C26.95 23.9897 27.21 23.8197 27.5 23.6997C27.79 23.5797 28.12 23.5197 28.47 23.5197C29.65 23.5297 30.19 24.0197 30.2 25.0797C30.2 25.3397 30.17 25.6197 30.1 25.9197ZM48.48 22.5197H47.68C47.57 22.5197 47.47 22.5597 47.38 22.6297C47.29 22.6997 47.23 22.7897 47.2 22.8797L45.77 30.5597V30.6297C45.77 30.8297 45.91 30.9497 46.12 30.9497H46.93C47.03 30.9497 47.14 30.9097 47.22 30.8397C47.31 30.7697 47.37 30.6797 47.4 30.5797L48.83 22.9097V22.8397C48.82 22.6497 48.68 22.5197 48.48 22.5197ZM8.44 20.8297C8.33 20.6597 8.2 20.5297 8.04 20.4297C7.88 20.3297 7.71 20.2597 7.53 20.2297C7.36 20.1997 7.19 20.1797 7.03 20.1797C6.86 20.1797 6.68 20.1997 6.5 20.2397C6.31 20.2797 6.12 20.3497 5.94 20.4397C5.75 20.5297 5.58 20.6597 5.42 20.8197C5.26 20.9797 5.11 21.1897 4.98 21.4397L0.06 30.3797C0.02 30.4397 0 30.5197 0 30.5997C0 30.6997 0.03 30.7997 0.11 30.8697C0.19 30.9397 0.29 30.9597 0.39 30.9597H1.41C1.51 30.9597 1.61 30.9297 1.7 30.8697C1.79 30.8097 1.86 30.7297 1.9 30.6397L3.59 27.1697H7.68L8.08 30.5997C8.1 30.6897 8.13 30.7697 8.18 30.8297C8.25 30.9197 8.36 30.9597 8.46 30.9597H9.47C9.59 30.9597 9.71 30.9297 9.79 30.8397C9.88 30.7497 9.9 30.6297 9.9 30.5097V30.4397L8.64 21.4797C8.62 21.2197 8.55 21.0097 8.44 20.8297ZM4.3 25.7197L6.43 21.8797C6.51 21.7297 6.71 21.6997 6.84 21.7097C7.1 21.7197 7.13 21.8797 7.13 21.8797L7.58 25.7197H4.3Z" fill="#007AC2"/>
</g>
<defs>
<clipPath id="clip0_762_5936">
<rect width="80" height="34.01" fill="white"/>
</clipPath>
</defs>
</svg>
